<svg height="24" viewBox="0 0 24 24" width="24" xmlns="http://www.w3.org/2000/svg"><g fill="#c00c02" transform="matrix(-.00585938 0 0 -.00585938 24 24)"><path d="m1969.02 980.849c59.01-1.743 119.78-3.379 178.68.961 161.53 10.859 316.17 69.62 444.15 168.78 165.53 128.07 278.9 302.9 338.54 502.8 12.46 41.75 25.15 85.8 30.72 129.06 45.26.7 86.48 8.1 124.56 34.13 40.38 27.61 66.06 71.59 74.67 119.35 8.73 48.5-3.61 100.74-31.78 141.04-40.35 57.71-101.56 80.43-168.31 92.18-10.29 196.47-93.51 379.3-219.72 528.04-160.82 189.52-364.33 297.79-612.41 318.27-47.88 1.45-95.19 2.42-143.02-1.1-167.32-12.68-328.24-69.73-466.18-165.28-169.71-117.56-293.51-290.21-350.4-488.66-18.7-64.24-29.04-129.48-41.04-195.14-50.1-3.21-101.92-22.04-138.976-56.59-36.887-34.4-54.871-84.03-56.359-133.75-1.469-49.11 15.262-99.41 49.566-135.16 39.729-41.41 94.339-56.41 150.139-57.44 27.82-182.68 106.12-362.58 228.24-502.13 159.8-182.62 367.73-283.384 608.93-299.361zm118 1438.921c50.7-4.97 99.59-11.71 148.83-25 164.08-44.27 359.75-153.94 468.13-286.89 41.71-51.17 71.86-109.58 64.53-177.29-10.23-94.41-99.7-174.81-170.38-230.88-161.5-128.11-374.71-229.03-584.79-216.71-201.52 12.44-481.76 150.75-614.55 301.91-43.95 50.03-75.59 107.36-70.44 175.71 7.33 97.38 78.43 175.87 149.49 236.17 168.99 146.26 385.7 225.58 609.18 222.98z"/><path d="m2018.99 1717.84c128.89-15.76 246.2 75.82 262.19 204.68 15.98 128.86-75.41 246.33-204.24 262.53-129.14 16.24-246.95-75.41-262.97-204.58s75.83-246.82 205.02-262.63z"/></g></svg>