<?xml version="1.0" encoding="utf-8" ?><svg xmlns="http://www.w3.org/2000/svg" xmlns:xlink="http://www.w3.org/1999/xlink" width="2000" height="2000" viewBox="0 0 2000 2000"><path fill="#0A0A0A" d="M978.721 480.869C1056.43 476.532 1133.22 488.515 1202.44 524.161C1308.75 578.903 1386.48 680.952 1424.04 793.089C1428.86 807.452 1433.86 822.928 1437.47 837.693C1440.15 848.665 1441.08 860.373 1444.63 871.334L1445.06 872.64C1466.03 873.383 1481.61 874.465 1499.86 885.344C1519.59 897.215 1533.67 916.557 1538.92 938.973C1544.71 963.042 1540.74 988.423 1527.89 1009.58C1507.98 1041.79 1478 1049.08 1443.66 1057.36C1440.9 1074.72 1440.52 1090.05 1436.94 1108.35C1420.22 1193.93 1381.87 1265.48 1323.23 1329.55C1240.94 1419.47 1142.73 1464.32 1021.73 1470.25C926.443 1471.49 839.679 1451.3 758.612 1399.64C670.162 1343.82 604.857 1257.92 574.72 1157.76C565.27 1126.65 558.87 1088.43 551.719 1056.06C530.292 1051.7 508.614 1047.02 490.601 1033.6C452.753 1005.38 447.079 942.477 475.616 905.787C497.285 877.927 520.832 876.121 552.744 871.868C557.955 856.947 562.045 829.012 567.826 810.232C590.672 736.021 621.027 676.047 673.34 618.69C742.234 543.152 827.307 498.277 928.714 484.424C944.837 482.221 962.448 481.581 978.721 480.869ZM1012.83 1184.42C1033.88 1183.05 1071.77 1177.81 1091.95 1171.96C1174.85 1147.93 1260 1100.27 1317.6 1035.1C1341.77 1007.75 1356.51 980.469 1353.82 943.383C1350.8 901.623 1314.37 865.421 1282.94 839.104C1204.18 773.155 1096.76 717.773 991.563 721.017C991.285 721.054 991.007 721.091 990.73 721.128C883.202 726.591 755.244 790.881 681.437 869.713C613.747 942.012 652.772 1014.23 716.825 1071.28C783.842 1130.74 867.205 1168.64 956.064 1180.07C975.068 1182.66 993.568 1184.96 1012.83 1184.42Z"/><path fill="#0A0A0A" d="M993.855 753.989C1103.93 750.108 1196.27 836.274 1200.01 946.354C1203.74 1056.43 1117.46 1148.66 1007.37 1152.26C897.492 1155.84 805.472 1069.75 801.742 959.872C798.013 849.996 883.984 757.863 993.855 753.989Z"/></svg>