<?xml version="1.0" encoding="utf-8" ?><svg xmlns="http://www.w3.org/2000/svg" xmlns:xlink="http://www.w3.org/1999/xlink" width="256" height="58" viewBox="0 0 256 58"><path fill="#C00C02" transform="matrix(0.179146 0 0 0.18125 -0.00012207 0)" d="M153.629 76.5287C158.233 76.3926 162.974 76.265 167.57 76.6036C180.173 77.4509 192.238 82.0356 202.223 89.7723C215.138 99.7646 223.984 113.406 228.637 129.002C229.61 132.26 230.599 135.696 231.034 139.072C234.566 139.126 237.782 139.704 240.753 141.735C243.903 143.889 245.907 147.32 246.579 151.047C247.26 154.831 246.297 158.907 244.099 162.051C240.951 166.554 236.175 168.327 230.967 169.243C230.164 184.572 223.671 198.837 213.824 210.442C201.276 225.229 185.398 233.677 166.042 235.275C162.306 235.388 158.615 235.463 154.883 235.189C141.828 234.199 129.273 229.748 118.51 222.293C105.269 213.121 95.61 199.65 91.1711 184.167C89.7121 179.155 88.9053 174.064 87.9691 168.941C84.0601 168.691 80.017 167.222 77.1257 164.526C74.2479 161.842 72.8448 157.97 72.7287 154.09C72.6138 150.259 73.9193 146.334 76.5958 143.545C79.6955 140.314 83.9565 139.143 88.3102 139.063C90.4808 124.81 96.59 110.774 106.118 99.8857C118.586 85.6371 134.809 77.7752 153.629 76.5287ZM162.835 188.797C166.791 188.409 170.605 187.883 174.447 186.847C187.249 183.393 202.516 174.836 210.972 164.463C214.227 160.47 216.579 155.913 216.007 150.63C215.209 143.264 208.228 136.991 202.713 132.616C190.113 122.621 173.478 114.747 157.087 115.708C141.363 116.678 119.498 127.47 109.138 139.264C105.708 143.167 103.24 147.64 103.642 152.973C104.213 160.571 109.761 166.695 115.305 171.4C128.49 182.811 145.399 189 162.835 188.797Z"/><path fill="#C00C02" transform="matrix(0.179146 0 0 0.18125 -0.00012207 0)" d="M157.527 134.031C167.584 132.801 176.736 139.946 177.984 150C179.231 160.055 172.1 169.22 162.049 170.484C151.973 171.751 142.781 164.6 141.531 154.522C140.281 144.444 147.448 135.264 157.527 134.031Z"/><path fill="#FFF8F8" transform="matrix(0.179146 0 0 0.18125 -0.00012207 0)" d="M310.661 194.505L310.661 133.55L332.607 133.55L332.607 196.083L310.661 196.083L310.661 194.505ZM313.817 194.505L312.239 194.505L312.239 192.927L331.029 192.927L331.029 194.505L329.451 194.505L329.451 135.128L331.029 135.128L331.029 136.706L312.239 136.706L312.239 135.128L313.817 135.128L313.817 194.505ZM290.466 137.125L290.466 119.199L352.802 119.199L352.802 138.703L290.466 138.703L290.466 137.125ZM293.622 137.125L292.044 137.125L292.044 135.547L351.224 135.547L351.224 137.125L349.646 137.125L349.646 120.777L351.224 120.777L351.224 122.355L292.044 122.355L292.044 120.777L293.622 120.777L293.622 137.125ZM312.239 194.505L312.239 135.128L331.029 135.128L331.029 194.505L312.239 194.505ZM292.044 137.125L292.044 120.777L351.224 120.777L351.224 137.125L292.044 137.125ZM406.017 194.505L406.017 119.199L427.962 119.199L427.962 196.083L406.017 196.083L406.017 194.505ZM409.173 194.505L407.595 194.505L407.595 192.927L426.384 192.927L426.384 194.505L424.806 194.505L424.806 120.777L426.384 120.777L426.384 122.355L407.595 122.355L407.595 120.777L409.173 120.777L409.173 194.505ZM359.141 194.505L359.141 119.199L381.087 119.199L381.087 196.083L359.141 196.083L359.141 194.505ZM362.298 194.505L360.72 194.505L360.72 192.927L379.509 192.927L379.509 194.505L377.931 194.505L377.931 120.777L379.509 120.777L379.509 122.355L360.72 122.355L360.72 120.777L362.298 120.777L362.298 194.505ZM374.701 165.507L374.701 147.58L412.403 147.58L412.403 167.085L374.701 167.085L374.701 165.507ZM377.857 165.507L376.279 165.507L376.279 163.929L410.825 163.929L410.825 165.507L409.247 165.507L409.247 149.158L410.825 149.158L410.825 150.736L376.279 150.736L376.279 149.158L377.857 149.158L377.857 165.507ZM407.595 194.505L407.595 120.777L426.384 120.777L426.384 194.505L407.595 194.505ZM360.72 194.505L360.72 120.777L379.509 120.777L379.509 194.505L360.72 194.505ZM376.279 165.507L376.279 149.158L410.825 149.158L410.825 165.507L376.279 165.507ZM439.739 194.505L439.739 119.199L461.069 119.199L461.069 196.083L439.739 196.083L439.739 194.505ZM442.896 194.505L441.318 194.505L441.318 192.927L459.491 192.927L459.491 194.505L457.913 194.505L457.913 120.777L459.491 120.777L459.491 122.355L441.318 122.355L441.318 120.777L442.896 120.777L442.896 194.505ZM455.891 194.505L455.891 177.565L490.165 177.565L490.165 196.083L455.891 196.083L455.891 194.505ZM459.047 194.505L457.469 194.505L457.469 192.927L488.587 192.927L488.587 194.505L487.009 194.505L487.009 179.143L488.587 179.143L488.587 180.721L457.469 180.721L457.469 179.143L459.047 179.143L459.047 194.505ZM455.891 164.718L455.891 147.777L488.045 147.777L488.045 166.296L455.891 166.296L455.891 164.718ZM459.047 164.718L457.469 164.718L457.469 163.14L486.467 163.14L486.467 164.718L484.889 164.718L484.889 149.356L486.467 149.356L486.467 150.934L457.469 150.934L457.469 149.356L459.047 149.356L459.047 164.718ZM455.891 136.139L455.891 119.199L489.549 119.199L489.549 137.717L455.891 137.717L455.891 136.139ZM459.047 136.139L457.469 136.139L457.469 134.561L487.971 134.561L487.971 136.139L486.393 136.139L486.393 120.777L487.971 120.777L487.971 122.355L457.469 122.355L457.469 120.777L459.047 120.777L459.047 136.139ZM441.318 194.505L441.318 120.777L459.491 120.777L459.491 194.505L441.318 194.505ZM457.469 194.505L457.469 179.143L488.587 179.143L488.587 194.505L457.469 194.505ZM457.469 164.718L457.469 149.356L486.467 149.356L486.467 164.718L457.469 164.718ZM457.469 136.139L457.469 120.777L487.971 120.777L487.971 136.139L457.469 136.139ZM557.863 198.105Q547.428 198.105 539.64 194.481Q531.863 190.836 526.688 184.888Q521.538 178.944 519.022 172.012Q516.511 165.094 516.511 158.553L516.511 156.334Q516.511 149.07 519.126 142.094Q521.75 135.072 527.017 129.394Q532.297 123.703 540.021 120.341Q547.745 116.979 557.863 116.979Q567.906 116.979 575.63 120.341Q583.356 123.703 588.612 129.397Q593.873 135.068 596.546 142.087Q599.239 149.062 599.239 156.334L599.239 158.553Q599.239 165.099 596.675 172.022Q594.11 178.949 588.966 184.886Q583.788 190.836 576.015 194.479Q568.223 198.105 557.863 198.105ZM557.863 194.949Q567.525 194.949 574.676 191.621Q581.845 188.261 586.58 182.819Q591.349 177.315 593.715 170.926Q596.083 164.533 596.083 158.553L596.083 156.334Q596.083 149.65 593.597 143.21Q591.142 136.765 586.293 131.538Q581.488 126.332 574.37 123.235Q567.249 120.136 557.863 120.136Q548.402 120.136 541.281 123.235Q534.161 126.333 529.331 131.541Q524.488 136.761 522.082 143.203Q519.667 149.642 519.667 156.334L519.667 158.553Q519.667 164.539 521.989 170.936Q524.306 177.319 529.069 182.816Q533.806 188.261 540.972 191.619Q548.127 194.949 557.863 194.949ZM557.863 177.367Q562.403 177.367 565.932 175.887Q569.467 174.392 571.976 171.724Q574.488 169.031 575.784 165.44Q577.096 161.803 577.096 157.542Q577.096 152.972 575.718 149.321Q574.374 145.676 571.867 143.079Q569.391 140.49 565.869 139.113Q562.322 137.717 557.863 137.717Q553.327 137.717 549.758 139.113Q546.258 140.49 543.759 143.079Q541.259 145.669 539.968 149.293Q538.654 152.959 538.654 157.542Q538.654 161.803 539.966 165.44Q541.261 169.031 543.778 171.729Q546.284 174.393 549.801 175.891Q553.345 177.367 557.863 177.367ZM557.863 180.524Q552.714 180.524 548.565 178.795Q544.438 177.038 541.47 173.882Q538.512 170.711 536.997 166.511Q535.498 162.355 535.498 157.542Q535.498 152.41 536.995 148.234Q538.514 143.968 541.488 140.887Q544.464 137.804 548.608 136.173Q552.732 134.561 557.863 134.561Q562.921 134.561 567.018 136.173Q571.19 137.804 574.138 140.887Q577.106 143.961 578.671 148.207Q580.252 152.397 580.252 157.542Q580.252 162.355 578.753 166.511Q577.238 170.711 574.275 173.887Q571.31 177.039 567.152 178.798Q563.038 180.524 557.863 180.524ZM557.863 196.527Q547.777 196.527 540.306 193.05Q532.834 189.548 527.878 183.853Q522.922 178.132 520.505 171.474Q518.089 164.816 518.089 158.553L518.089 156.334Q518.089 149.356 520.604 142.649Q523.119 135.917 528.174 130.467Q533.229 125.018 540.651 121.788Q548.073 118.557 557.863 118.557Q567.578 118.557 575 121.788Q582.422 125.018 587.452 130.467Q592.507 135.917 595.072 142.649Q597.661 149.356 597.661 156.334L597.661 158.553Q597.661 164.816 595.195 171.474Q592.729 178.132 587.773 183.853Q582.817 189.548 575.345 193.05Q567.874 196.527 557.863 196.527ZM557.863 178.945Q562.72 178.945 566.542 177.343Q570.389 175.715 573.126 172.806Q575.863 169.871 577.269 165.975Q578.674 162.079 578.674 157.542Q578.674 152.684 577.195 148.764Q575.74 144.818 573.003 141.983Q570.29 139.147 566.444 137.643Q562.622 136.139 557.863 136.139Q553.03 136.139 549.183 137.643Q545.361 139.147 542.624 141.983Q539.887 144.818 538.481 148.764Q537.076 152.684 537.076 157.542Q537.076 162.079 538.481 165.975Q539.887 169.871 542.624 172.806Q545.361 175.715 549.183 177.343Q553.03 178.945 557.863 178.945ZM607.4 194.505L607.4 119.199L640.827 119.199L665.791 178.954L664.335 179.562L664.335 177.984L671.966 177.984L664.261 184.936L664.261 119.199L684.999 119.199L684.999 196.083L651.349 196.083L626.409 136.327L627.866 135.72L627.866 137.298L620.235 137.298L627.94 130.345L627.94 196.083L607.4 196.083L607.4 194.505ZM610.556 194.505L608.978 194.505L608.978 192.927L626.362 192.927L626.362 194.505L624.784 194.505L624.784 133.895L626.362 133.895L627.419 135.066L625.397 136.891L624.34 135.72L624.34 134.141L628.917 134.141L653.857 193.897L652.401 194.505L652.401 192.927L683.421 192.927L683.421 194.505L681.843 194.505L681.843 120.777L683.421 120.777L683.421 122.355L665.839 122.355L665.839 120.777L667.418 120.777L667.418 181.387L665.839 181.387L664.782 180.215L666.804 178.39L667.861 179.562L667.861 181.14L663.284 181.14L638.32 121.385L639.776 120.777L639.776 122.355L608.978 122.355L608.978 120.777L610.556 120.777L610.556 194.505ZM608.978 194.505L608.978 120.777L639.776 120.777L664.335 179.562L667.861 179.562L665.839 181.387L665.839 120.777L683.421 120.777L683.421 194.505L652.401 194.505L627.866 135.72L624.34 135.72L626.362 133.895L626.362 194.505L608.978 194.505ZM696.785 194.505L696.785 119.199L718.114 119.199L718.114 196.083L696.785 196.083L696.785 194.505ZM699.941 194.505L698.363 194.505L698.363 192.927L716.536 192.927L716.536 194.505L714.958 194.505L714.958 120.777L716.536 120.777L716.536 122.355L698.363 122.355L698.363 120.777L699.941 120.777L699.941 194.505ZM712.936 194.505L712.936 177.565L747.211 177.565L747.211 196.083L712.936 196.083L712.936 194.505ZM716.092 194.505L714.514 194.505L714.514 192.927L745.632 192.927L745.632 194.505L744.054 194.505L744.054 179.143L745.632 179.143L745.632 180.721L714.514 180.721L714.514 179.143L716.092 179.143L716.092 194.505ZM712.936 164.718L712.936 147.777L745.09 147.777L745.09 166.296L712.936 166.296L712.936 164.718ZM716.092 164.718L714.514 164.718L714.514 163.14L743.512 163.14L743.512 164.718L741.934 164.718L741.934 149.356L743.512 149.356L743.512 150.934L714.514 150.934L714.514 149.356L716.092 149.356L716.092 164.718ZM712.936 136.139L712.936 119.199L746.594 119.199L746.594 137.717L712.936 137.717L712.936 136.139ZM716.092 136.139L714.514 136.139L714.514 134.561L745.016 134.561L745.016 136.139L743.438 136.139L743.438 120.777L745.016 120.777L745.016 122.355L714.514 122.355L714.514 120.777L716.092 120.777L716.092 136.139ZM698.363 194.505L698.363 120.777L716.536 120.777L716.536 194.505L698.363 194.505ZM714.514 194.505L714.514 179.143L745.632 179.143L745.632 194.505L714.514 194.505ZM714.514 164.718L714.514 149.356L743.512 149.356L743.512 164.718L714.514 164.718ZM714.514 136.139L714.514 120.777L745.016 120.777L745.016 136.139L714.514 136.139Z"/><path fill="#FFF8F8" transform="matrix(0.179146 0 0 0.18125 -0.00012207 0)" d="M789.853 166.296L789.853 161.389L807.656 161.389Q814.313 161.389 818.357 158.948Q822.401 156.507 824.3 152.438Q826.199 148.345 826.199 143.388Q826.199 138.407 824.3 134.339Q822.401 130.27 818.357 127.854Q814.313 125.412 807.656 125.412L789.853 125.412L789.853 120.506L806.916 120.506Q815.522 120.506 820.996 123.489Q826.47 126.473 829.084 131.528Q831.722 136.558 831.722 142.796L831.722 144.005Q831.722 150.145 829.084 155.249Q826.47 160.328 820.996 163.312Q815.522 166.296 806.916 166.296L789.853 166.296ZM786.351 194.505L786.351 120.506L791.801 120.506L791.801 194.505L786.351 194.505ZM848.971 194.505L848.971 120.777L854.421 120.777L854.421 194.505L848.971 194.505ZM852.744 194.505L852.744 189.524L890.717 189.524L890.717 194.505L852.744 194.505ZM852.744 159.515L852.744 154.534L887.043 154.534L887.043 159.515L852.744 159.515ZM852.744 125.758L852.744 120.777L889.509 120.777L889.509 125.758L852.744 125.758ZM910.076 194.505L910.076 120.506L915.526 120.506L915.526 194.505L910.076 194.505ZM956.088 194.505L930.099 162.153L936.608 162.153L962.795 194.505L956.088 194.505ZM913.011 165.285L913.011 160.328L932.786 160.328Q939.124 160.328 943.02 158.011Q946.94 155.693 948.79 151.747Q950.639 147.777 950.639 142.895Q950.639 138.013 948.79 134.068Q946.94 130.098 943.02 127.755Q939.124 125.412 932.786 125.412L913.011 125.412L913.011 120.506L932.047 120.506Q940.209 120.506 945.559 123.267Q950.91 126.029 953.524 130.961Q956.162 135.868 956.162 142.279L956.162 143.512Q956.162 149.923 953.524 154.854Q950.886 159.761 945.535 162.523Q940.209 165.285 932.047 165.285L913.011 165.285ZM1000.56 196.182Q991.166 196.182 984.903 193.223Q978.64 190.264 975.509 185.061Q972.377 179.833 972.377 173.249L977.851 173.249Q977.851 178.354 980.218 182.398Q982.585 186.417 987.616 188.784Q992.646 191.127 1000.56 191.127Q1007.91 191.127 1012.84 189.031Q1017.8 186.935 1020.29 183.261Q1022.78 179.562 1022.78 174.754Q1022.78 168.712 1018.34 164.52Q1013.9 160.328 1004.78 159.49L995.975 158.726Q986.802 157.912 981.451 152.906Q976.1 147.876 976.1 139.69Q976.1 133.796 978.837 129.136Q981.574 124.451 986.999 121.664Q992.424 118.878 1000.39 118.878Q1008.55 118.878 1014.1 121.862Q1019.65 124.821 1022.48 129.826Q1025.34 134.807 1025.34 141.07L1019.89 141.07Q1019.89 136.533 1017.87 132.637Q1015.87 128.717 1011.56 126.325Q1007.27 123.933 1000.39 123.933Q993.805 123.933 989.638 126.103Q985.47 128.248 983.498 131.848Q981.55 135.424 981.55 139.69Q981.55 145.682 985.446 149.356Q989.342 153.03 996.591 153.671L1005.37 154.435Q1012.74 155.052 1017.85 157.838Q1022.95 160.6 1025.59 164.94Q1028.23 169.255 1028.23 174.754Q1028.23 180.893 1024.97 185.776Q1021.72 190.658 1015.55 193.42Q1009.39 196.182 1000.56 196.182ZM1080.1 196.182Q1070.8 196.182 1063.8 192.828Q1056.8 189.45 1052.11 183.877Q1047.43 178.28 1045.06 171.597Q1042.69 164.89 1042.69 158.208L1042.69 156.654Q1042.69 149.701 1045.13 142.994Q1047.6 136.287 1052.38 130.837Q1057.17 125.363 1064.12 122.133Q1071.07 118.878 1080.1 118.878Q1089.1 118.878 1096.03 122.133Q1102.96 125.363 1107.72 130.837Q1112.5 136.287 1114.92 142.994Q1117.36 149.701 1117.36 156.654L1117.36 158.282Q1117.36 164.94 1115.01 171.622Q1112.67 178.28 1107.99 183.877Q1103.33 189.45 1096.35 192.828Q1089.37 196.182 1080.1 196.182ZM1080.1 191.127Q1087.69 191.127 1093.59 188.34Q1099.5 185.554 1103.57 180.77Q1107.67 175.962 1109.74 169.945Q1111.83 163.929 1111.83 157.542Q1111.83 150.835 1109.66 144.818Q1107.52 138.777 1103.4 134.092Q1099.31 129.383 1093.39 126.67Q1087.5 123.933 1080.1 123.933Q1072.68 123.933 1066.76 126.67Q1060.86 129.383 1056.72 134.092Q1052.58 138.777 1050.39 144.818Q1048.21 150.835 1048.21 157.542Q1048.21 163.929 1050.34 169.945Q1052.46 175.962 1056.52 180.77Q1060.59 185.554 1066.54 188.34Q1072.48 191.127 1080.1 191.127ZM1136.28 194.505L1136.28 120.777L1145.78 120.777L1189.03 189.524L1192.26 189.524L1190.23 190.929L1190.23 120.777L1195.56 120.777L1195.56 194.505L1185.99 194.505L1142.74 125.758L1139.51 125.758L1141.53 124.352L1141.53 194.505L1136.28 194.505ZM1244.35 194.505L1244.35 120.777L1249.8 120.777L1249.8 194.505L1244.35 194.505ZM1247.85 194.505L1247.85 189.524L1283.41 189.524L1283.41 194.505L1247.85 194.505ZM1291.04 194.505L1318.81 120.777L1329.66 120.777L1358.39 194.505L1352.76 194.505L1325.32 123.933L1328.67 125.758L1319.45 125.758L1322.93 123.933L1296.49 194.505L1291.04 194.505ZM1304.26 169.649L1306.13 164.668L1342.73 164.668L1344.65 169.649L1304.26 169.649ZM1378.14 194.776L1378.14 189.869L1400.7 189.869Q1407.85 189.869 1411.92 185.652Q1415.99 181.411 1415.99 174.68Q1415.99 167.973 1411.99 163.756Q1408.02 159.515 1400.7 159.515L1378.14 159.515L1378.14 155.742L1399.81 155.742Q1406.22 155.742 1411.08 157.813Q1415.94 159.86 1418.7 164.003Q1421.49 168.12 1421.49 174.236L1421.49 175.247Q1421.49 180.844 1419.1 185.283Q1416.73 189.697 1411.9 192.236Q1407.09 194.776 1399.81 194.776L1378.14 194.776ZM1374.44 194.776L1374.44 120.506L1379.89 120.506L1379.89 194.776L1374.44 194.776ZM1378.14 158.504L1378.14 154.756L1397.96 154.756Q1405.63 154.756 1409.28 150.638Q1412.96 146.495 1412.96 140.109Q1412.96 133.673 1409.28 129.555Q1405.63 125.412 1397.96 125.412L1378.14 125.412L1378.14 120.506L1396.98 120.506Q1407.83 120.506 1413.15 125.708Q1418.48 130.911 1418.48 139.492L1418.48 140.503Q1418.48 146.471 1415.84 150.49Q1413.23 154.509 1408.42 156.507Q1403.61 158.504 1396.98 158.504L1378.14 158.504Z"/></svg>