<?xml version="1.0" encoding="utf-8" ?>
<svg xmlns="http://www.w3.org/2000/svg" xmlns:xlink="http://www.w3.org/1999/xlink" width="60" height="60">
	<path fill="#C00C02" transform="scale(0.0146484 0.0146484)" d="M1969.02 980.849C2028.03 979.106 2088.8 977.47 2147.7 981.81C2309.23 992.669 2463.87 1051.43 2591.85 1150.59C2757.38 1278.66 2870.75 1453.49 2930.39 1653.39C2942.85 1695.14 2955.54 1739.19 2961.11 1782.45C3006.37 1783.15 3047.59 1790.55 3085.67 1816.58C3126.05 1844.19 3151.73 1888.17 3160.34 1935.93C3169.07 1984.43 3156.73 2036.67 3128.56 2076.97C3088.21 2134.68 3027 2157.4 2960.25 2169.15C2949.96 2365.62 2866.74 2548.45 2740.53 2697.19C2579.71 2886.71 2376.2 2994.98 2128.12 3015.46C2080.24 3016.91 2032.93 3017.88 1985.1 3014.36C1817.78 3001.68 1656.86 2944.63 1518.92 2849.08C1349.21 2731.52 1225.41 2558.87 1168.52 2360.42C1149.82 2296.18 1139.48 2230.94 1127.48 2165.28C1077.38 2162.07 1025.56 2143.24 988.504 2108.69C951.617 2074.29 933.633 2024.66 932.145 1974.94C930.676 1925.83 947.407 1875.53 981.711 1839.78C1021.44 1798.37 1076.05 1783.37 1131.85 1782.34C1159.67 1599.66 1237.97 1419.76 1360.09 1280.21C1519.89 1097.59 1727.82 996.826 1969.02 980.849ZM2087.02 2419.77C2137.72 2414.8 2186.61 2408.06 2235.85 2394.77C2399.93 2350.5 2595.6 2240.83 2703.98 2107.88C2745.69 2056.71 2775.84 1998.3 2768.51 1930.59C2758.28 1836.18 2668.81 1755.78 2598.13 1699.71C2436.63 1571.6 2223.42 1470.68 2013.34 1483C1811.82 1495.44 1531.58 1633.75 1398.79 1784.91C1354.84 1834.94 1323.2 1892.27 1328.35 1960.62C1335.68 2058 1406.78 2136.49 1477.84 2196.79C1646.83 2343.05 1863.54 2422.37 2087.02 2419.77Z"/>
	<path fill="#C00C02" transform="scale(0.0146484 0.0146484)" d="M2018.99 1717.84C2147.88 1702.08 2265.19 1793.66 2281.18 1922.52C2297.16 2051.38 2205.77 2168.85 2076.94 2185.05C1947.8 2201.29 1829.99 2109.64 1813.97 1980.47C1797.95 1851.3 1889.8 1733.65 2018.99 1717.84Z"/>
</svg>
