<?xml version="1.0" encoding="utf-8" ?><svg xmlns="http://www.w3.org/2000/svg" xmlns:xlink="http://www.w3.org/1999/xlink" width="256" height="58" viewBox="0 0 256 58"><path fill="#C00C02" transform="scale(0.179146 0.18125)" d="M153.629 76.5287C158.233 76.3926 162.974 76.265 167.57 76.6036C180.173 77.4509 192.238 82.0356 202.223 89.7723C215.138 99.7646 223.984 113.406 228.637 129.002C229.61 132.26 230.599 135.696 231.034 139.072C234.566 139.126 237.782 139.704 240.753 141.735C243.903 143.889 245.907 147.32 246.579 151.047C247.26 154.831 246.297 158.907 244.099 162.051C240.951 166.554 236.175 168.327 230.967 169.243C230.164 184.572 223.671 198.837 213.824 210.442C201.276 225.229 185.398 233.677 166.042 235.275C162.306 235.388 158.615 235.463 154.883 235.189C141.828 234.199 129.273 229.748 118.51 222.293C105.269 213.121 95.61 199.65 91.1711 184.167C89.7121 179.155 88.9053 174.064 87.9691 168.941C84.0601 168.691 80.017 167.222 77.1257 164.526C74.2479 161.842 72.8448 157.97 72.7287 154.09C72.6138 150.259 73.9193 146.334 76.5958 143.545C79.6955 140.314 83.9565 139.143 88.3102 139.063C90.4808 124.81 96.59 110.774 106.118 99.8857C118.586 85.6371 134.809 77.7752 153.629 76.5287ZM162.835 188.797C166.791 188.409 170.605 187.883 174.447 186.847C187.249 183.393 202.516 174.836 210.972 164.463C214.227 160.47 216.579 155.913 216.007 150.63C215.209 143.264 208.228 136.991 202.713 132.616C190.113 122.621 173.478 114.747 157.087 115.708C141.363 116.678 119.498 127.47 109.138 139.264C105.708 143.167 103.24 147.64 103.642 152.973C104.213 160.571 109.761 166.695 115.305 171.4C128.49 182.811 145.399 189 162.835 188.797Z"/><path fill="#C00C02" transform="scale(0.179146 0.18125)" d="M157.527 134.031C167.584 132.801 176.736 139.946 177.984 150C179.231 160.055 172.1 169.22 162.049 170.484C151.973 171.751 142.781 164.6 141.531 154.522C140.281 144.444 147.448 135.264 157.527 134.031Z"/><path fill="#280200" transform="scale(0.179146 0.18125)" d="M310.661 194.62L310.661 133.665L332.607 133.665L332.607 196.198L310.661 196.198L310.661 194.62ZM313.817 194.62L312.239 194.62L312.239 193.042L331.029 193.042L331.029 194.62L329.451 194.62L329.451 135.243L331.029 135.243L331.029 136.822L312.239 136.822L312.239 135.243L313.817 135.243L313.817 194.62ZM290.466 137.241L290.466 119.314L352.802 119.314L352.802 138.819L290.466 138.819L290.466 137.241ZM293.622 137.241L292.044 137.241L292.044 135.663L351.224 135.663L351.224 137.241L349.646 137.241L349.646 120.892L351.224 120.892L351.224 122.47L292.044 122.47L292.044 120.892L293.622 120.892L293.622 137.241ZM312.239 194.62L312.239 135.243L331.029 135.243L331.029 194.62L312.239 194.62ZM292.044 137.241L292.044 120.892L351.224 120.892L351.224 137.241L292.044 137.241ZM406.017 194.62L406.017 119.314L427.962 119.314L427.962 196.198L406.017 196.198L406.017 194.62ZM409.173 194.62L407.595 194.62L407.595 193.042L426.384 193.042L426.384 194.62L424.806 194.62L424.806 120.892L426.384 120.892L426.384 122.47L407.595 122.47L407.595 120.892L409.173 120.892L409.173 194.62ZM359.141 194.62L359.141 119.314L381.087 119.314L381.087 196.198L359.141 196.198L359.141 194.62ZM362.298 194.62L360.72 194.62L360.72 193.042L379.509 193.042L379.509 194.62L377.931 194.62L377.931 120.892L379.509 120.892L379.509 122.47L360.72 122.47L360.72 120.892L362.298 120.892L362.298 194.62ZM374.701 165.622L374.701 147.696L412.403 147.696L412.403 167.2L374.701 167.2L374.701 165.622ZM377.857 165.622L376.279 165.622L376.279 164.044L410.825 164.044L410.825 165.622L409.247 165.622L409.247 149.274L410.825 149.274L410.825 150.852L376.279 150.852L376.279 149.274L377.857 149.274L377.857 165.622ZM407.595 194.62L407.595 120.892L426.384 120.892L426.384 194.62L407.595 194.62ZM360.72 194.62L360.72 120.892L379.509 120.892L379.509 194.62L360.72 194.62ZM376.279 165.622L376.279 149.274L410.825 149.274L410.825 165.622L376.279 165.622ZM439.739 194.62L439.739 119.314L461.069 119.314L461.069 196.198L439.739 196.198L439.739 194.62ZM442.896 194.62L441.318 194.62L441.318 193.042L459.491 193.042L459.491 194.62L457.913 194.62L457.913 120.892L459.491 120.892L459.491 122.47L441.318 122.47L441.318 120.892L442.896 120.892L442.896 194.62ZM455.891 194.62L455.891 177.68L490.165 177.68L490.165 196.198L455.891 196.198L455.891 194.62ZM459.047 194.62L457.469 194.62L457.469 193.042L488.587 193.042L488.587 194.62L487.009 194.62L487.009 179.258L488.587 179.258L488.587 180.836L457.469 180.836L457.469 179.258L459.047 179.258L459.047 194.62ZM455.891 164.833L455.891 147.893L488.045 147.893L488.045 166.411L455.891 166.411L455.891 164.833ZM459.047 164.833L457.469 164.833L457.469 163.255L486.467 163.255L486.467 164.833L484.889 164.833L484.889 149.471L486.467 149.471L486.467 151.049L457.469 151.049L457.469 149.471L459.047 149.471L459.047 164.833ZM455.891 136.254L455.891 119.314L489.549 119.314L489.549 137.833L455.891 137.833L455.891 136.254ZM459.047 136.254L457.469 136.254L457.469 134.676L487.971 134.676L487.971 136.254L486.393 136.254L486.393 120.892L487.971 120.892L487.971 122.47L457.469 122.47L457.469 120.892L459.047 120.892L459.047 136.254ZM441.318 194.62L441.318 120.892L459.491 120.892L459.491 194.62L441.318 194.62ZM457.469 194.62L457.469 179.258L488.587 179.258L488.587 194.62L457.469 194.62ZM457.469 164.833L457.469 149.471L486.467 149.471L486.467 164.833L457.469 164.833ZM457.469 136.254L457.469 120.892L487.971 120.892L487.971 136.254L457.469 136.254ZM557.863 198.22Q547.428 198.22 539.64 194.596Q531.863 190.952 526.688 185.004Q521.538 179.06 519.022 172.128Q516.511 165.209 516.511 158.669L516.511 156.449Q516.511 149.185 519.126 142.21Q521.75 135.188 527.017 129.51Q532.297 123.818 540.021 120.456Q547.745 117.095 557.863 117.095Q567.906 117.095 575.63 120.456Q583.356 123.819 588.612 129.512Q593.873 135.184 596.546 142.202Q599.239 149.177 599.239 156.449L599.239 158.669Q599.239 165.215 596.675 172.138Q594.11 179.064 588.966 185.001Q583.788 190.952 576.015 194.594Q568.223 198.22 557.863 198.22ZM557.863 195.064Q567.525 195.064 574.676 191.737Q581.845 188.376 586.58 182.935Q591.349 177.43 593.715 171.041Q596.083 164.649 596.083 158.669L596.083 156.449Q596.083 149.765 593.597 143.326Q591.142 136.881 586.293 131.653Q581.488 126.448 574.37 123.35Q567.249 120.251 557.863 120.251Q548.402 120.251 541.281 123.35Q534.161 126.449 529.331 131.656Q524.488 136.877 522.082 143.318Q519.667 149.757 519.667 156.449L519.667 158.669Q519.667 164.654 521.989 171.051Q524.306 177.435 529.069 182.932Q533.806 188.376 540.972 191.735Q548.127 195.064 557.863 195.064ZM557.863 177.483Q562.403 177.483 565.932 176.003Q569.467 174.507 571.976 171.84Q574.488 169.147 575.784 165.555Q577.096 161.919 577.096 157.658Q577.096 153.088 575.718 149.436Q574.374 145.791 571.867 143.194Q569.391 140.605 565.869 139.228Q562.322 137.833 557.863 137.833Q553.327 137.833 549.758 139.228Q546.258 140.605 543.759 143.194Q541.259 145.785 539.968 149.409Q538.654 153.074 538.654 157.658Q538.654 161.919 539.966 165.555Q541.261 169.147 543.778 171.845Q546.284 174.508 549.801 176.006Q553.345 177.483 557.863 177.483ZM557.863 180.639Q552.714 180.639 548.565 178.91Q544.438 177.153 541.47 173.997Q538.512 170.827 536.997 166.626Q535.498 162.471 535.498 157.658Q535.498 152.526 536.995 148.35Q538.514 144.083 541.488 141.002Q544.464 137.92 548.608 136.289Q552.732 134.676 557.863 134.676Q562.921 134.676 567.018 136.289Q571.19 137.92 574.138 141.002Q577.106 144.077 578.671 148.322Q580.252 152.512 580.252 157.658Q580.252 162.471 578.753 166.626Q577.238 170.827 574.275 174.002Q571.31 177.155 567.152 178.913Q563.038 180.639 557.863 180.639ZM557.863 196.642Q547.777 196.642 540.306 193.165Q532.834 189.664 527.878 183.968Q522.922 178.247 520.505 171.59Q518.089 164.932 518.089 158.669L518.089 156.449Q518.089 149.471 520.604 142.764Q523.119 136.032 528.174 130.583Q533.229 125.133 540.651 121.903Q548.073 118.673 557.863 118.673Q567.578 118.673 575 121.903Q582.422 125.133 587.452 130.583Q592.507 136.032 595.072 142.764Q597.661 149.471 597.661 156.449L597.661 158.669Q597.661 164.932 595.195 171.59Q592.729 178.247 587.773 183.968Q582.817 189.664 575.345 193.165Q567.874 196.642 557.863 196.642ZM557.863 179.061Q562.72 179.061 566.542 177.458Q570.389 175.831 573.126 172.921Q575.863 169.987 577.269 166.091Q578.674 162.195 578.674 157.658Q578.674 152.8 577.195 148.879Q575.74 144.934 573.003 142.098Q570.29 139.263 566.444 137.758Q562.622 136.254 557.863 136.254Q553.03 136.254 549.183 137.758Q545.361 139.263 542.624 142.098Q539.887 144.934 538.481 148.879Q537.076 152.8 537.076 157.658Q537.076 162.195 538.481 166.091Q539.887 169.987 542.624 172.921Q545.361 175.831 549.183 177.458Q553.03 179.061 557.863 179.061ZM607.4 194.62L607.4 119.314L640.827 119.314L665.791 179.069L664.335 179.677L664.335 178.099L671.966 178.099L664.261 185.052L664.261 119.314L684.999 119.314L684.999 196.198L651.349 196.198L626.409 136.443L627.866 135.835L627.866 137.413L620.235 137.413L627.94 130.46L627.94 196.198L607.4 196.198L607.4 194.62ZM610.556 194.62L608.978 194.62L608.978 193.042L626.362 193.042L626.362 194.62L624.784 194.62L624.784 134.01L626.362 134.01L627.419 135.182L625.397 137.007L624.34 135.835L624.34 134.257L628.917 134.257L653.857 194.012L652.401 194.62L652.401 193.042L683.421 193.042L683.421 194.62L681.843 194.62L681.843 120.892L683.421 120.892L683.421 122.47L665.839 122.47L665.839 120.892L667.418 120.892L667.418 181.502L665.839 181.502L664.782 180.331L666.804 178.506L667.861 179.677L667.861 181.256L663.284 181.256L638.32 121.501L639.776 120.892L639.776 122.47L608.978 122.47L608.978 120.892L610.556 120.892L610.556 194.62ZM608.978 194.62L608.978 120.892L639.776 120.892L664.335 179.677L667.861 179.677L665.839 181.502L665.839 120.892L683.421 120.892L683.421 194.62L652.401 194.62L627.866 135.835L624.34 135.835L626.362 134.01L626.362 194.62L608.978 194.62ZM696.785 194.62L696.785 119.314L718.114 119.314L718.114 196.198L696.785 196.198L696.785 194.62ZM699.941 194.62L698.363 194.62L698.363 193.042L716.536 193.042L716.536 194.62L714.958 194.62L714.958 120.892L716.536 120.892L716.536 122.47L698.363 122.47L698.363 120.892L699.941 120.892L699.941 194.62ZM712.936 194.62L712.936 177.68L747.211 177.68L747.211 196.198L712.936 196.198L712.936 194.62ZM716.092 194.62L714.514 194.62L714.514 193.042L745.632 193.042L745.632 194.62L744.054 194.62L744.054 179.258L745.632 179.258L745.632 180.836L714.514 180.836L714.514 179.258L716.092 179.258L716.092 194.62ZM712.936 164.833L712.936 147.893L745.09 147.893L745.09 166.411L712.936 166.411L712.936 164.833ZM716.092 164.833L714.514 164.833L714.514 163.255L743.512 163.255L743.512 164.833L741.934 164.833L741.934 149.471L743.512 149.471L743.512 151.049L714.514 151.049L714.514 149.471L716.092 149.471L716.092 164.833ZM712.936 136.254L712.936 119.314L746.594 119.314L746.594 137.833L712.936 137.833L712.936 136.254ZM716.092 136.254L714.514 136.254L714.514 134.676L745.016 134.676L745.016 136.254L743.438 136.254L743.438 120.892L745.016 120.892L745.016 122.47L714.514 122.47L714.514 120.892L716.092 120.892L716.092 136.254ZM698.363 194.62L698.363 120.892L716.536 120.892L716.536 194.62L698.363 194.62ZM714.514 194.62L714.514 179.258L745.632 179.258L745.632 194.62L714.514 194.62ZM714.514 164.833L714.514 149.471L743.512 149.471L743.512 164.833L714.514 164.833ZM714.514 136.254L714.514 120.892L745.016 120.892L745.016 136.254L714.514 136.254Z"/><path fill="#280200" transform="scale(0.179146 0.18125)" d="M789.853 166.411L789.853 161.504L807.656 161.504Q814.313 161.504 818.357 159.063Q822.401 156.622 824.3 152.553Q826.199 148.46 826.199 143.504Q826.199 138.523 824.3 134.454Q822.401 130.386 818.357 127.969Q814.313 125.528 807.656 125.528L789.853 125.528L789.853 120.621L806.916 120.621Q815.522 120.621 820.996 123.605Q826.47 126.588 829.084 131.643Q831.722 136.673 831.722 142.912L831.722 144.12Q831.722 150.26 829.084 155.364Q826.47 160.444 820.996 163.428Q815.522 166.411 806.916 166.411L789.853 166.411ZM786.351 194.62L786.351 120.621L791.801 120.621L791.801 194.62L786.351 194.62ZM848.971 194.62L848.971 120.892L854.421 120.892L854.421 194.62L848.971 194.62ZM852.744 194.62L852.744 189.639L890.717 189.639L890.717 194.62L852.744 194.62ZM852.744 159.63L852.744 154.649L887.043 154.649L887.043 159.63L852.744 159.63ZM852.744 125.873L852.744 120.892L889.509 120.892L889.509 125.873L852.744 125.873ZM910.076 194.62L910.076 120.621L915.526 120.621L915.526 194.62L910.076 194.62ZM956.088 194.62L930.099 162.269L936.608 162.269L962.795 194.62L956.088 194.62ZM913.011 165.4L913.011 160.444L932.786 160.444Q939.124 160.444 943.02 158.126Q946.94 155.808 948.79 151.863Q950.639 147.893 950.639 143.011Q950.639 138.128 948.79 134.183Q946.94 130.213 943.02 127.87Q939.124 125.528 932.786 125.528L913.011 125.528L913.011 120.621L932.047 120.621Q940.209 120.621 945.559 123.383Q950.91 126.145 953.524 131.076Q956.162 135.983 956.162 142.394L956.162 143.627Q956.162 150.038 953.524 154.97Q950.886 159.877 945.535 162.639Q940.209 165.4 932.047 165.4L913.011 165.4ZM1000.56 196.297Q991.166 196.297 984.903 193.338Q978.64 190.379 975.509 185.176Q972.377 179.949 972.377 173.365L977.851 173.365Q977.851 178.469 980.218 182.513Q982.585 186.532 987.616 188.9Q992.646 191.242 1000.56 191.242Q1007.91 191.242 1012.84 189.146Q1017.8 187.05 1020.29 183.376Q1022.78 179.677 1022.78 174.869Q1022.78 168.828 1018.34 164.636Q1013.9 160.444 1004.78 159.606L995.975 158.841Q986.802 158.027 981.451 153.022Q976.1 147.992 976.1 139.805Q976.1 133.912 978.837 129.251Q981.574 124.566 986.999 121.78Q992.424 118.994 1000.39 118.994Q1008.55 118.994 1014.1 121.977Q1019.65 124.936 1022.48 129.942Q1025.34 134.923 1025.34 141.186L1019.89 141.186Q1019.89 136.649 1017.87 132.753Q1015.87 128.832 1011.56 126.44Q1007.27 124.049 1000.39 124.049Q993.805 124.049 989.638 126.218Q985.47 128.364 983.498 131.964Q981.55 135.539 981.55 139.805Q981.55 145.797 985.446 149.471Q989.342 153.145 996.591 153.786L1005.37 154.551Q1012.74 155.167 1017.85 157.954Q1022.95 160.715 1025.59 165.055Q1028.23 169.37 1028.23 174.869Q1028.23 181.009 1024.97 185.891Q1021.72 190.774 1015.55 193.535Q1009.39 196.297 1000.56 196.297ZM1080.1 196.297Q1070.8 196.297 1063.8 192.943Q1056.8 189.565 1052.11 183.993Q1047.43 178.395 1045.06 171.713Q1042.69 165.006 1042.69 158.323L1042.69 156.77Q1042.69 149.816 1045.13 143.109Q1047.6 136.402 1052.38 130.953Q1057.17 125.479 1064.12 122.249Q1071.07 118.994 1080.1 118.994Q1089.1 118.994 1096.03 122.249Q1102.96 125.479 1107.72 130.953Q1112.5 136.402 1114.92 143.109Q1117.36 149.816 1117.36 156.77L1117.36 158.397Q1117.36 165.055 1115.01 171.738Q1112.67 178.395 1107.99 183.993Q1103.33 189.565 1096.35 192.943Q1089.37 196.297 1080.1 196.297ZM1080.1 191.242Q1087.69 191.242 1093.59 188.456Q1099.5 185.669 1103.57 180.886Q1107.67 176.077 1109.74 170.061Q1111.83 164.044 1111.83 157.658Q1111.83 150.951 1109.66 144.934Q1107.52 138.893 1103.4 134.208Q1099.31 129.498 1093.39 126.786Q1087.5 124.049 1080.1 124.049Q1072.68 124.049 1066.76 126.786Q1060.86 129.498 1056.72 134.208Q1052.58 138.893 1050.39 144.934Q1048.21 150.951 1048.21 157.658Q1048.21 164.044 1050.34 170.061Q1052.46 176.077 1056.52 180.886Q1060.59 185.669 1066.54 188.456Q1072.48 191.242 1080.1 191.242ZM1136.28 194.62L1136.28 120.892L1145.78 120.892L1189.03 189.639L1192.26 189.639L1190.23 191.045L1190.23 120.892L1195.56 120.892L1195.56 194.62L1185.99 194.62L1142.74 125.873L1139.51 125.873L1141.53 124.468L1141.53 194.62L1136.28 194.62ZM1244.35 194.62L1244.35 120.892L1249.8 120.892L1249.8 194.62L1244.35 194.62ZM1247.85 194.62L1247.85 189.639L1283.41 189.639L1283.41 194.62L1247.85 194.62ZM1291.04 194.62L1318.81 120.892L1329.66 120.892L1358.39 194.62L1352.76 194.62L1325.32 124.049L1328.67 125.873L1319.45 125.873L1322.93 124.049L1296.49 194.62L1291.04 194.62ZM1304.26 169.765L1306.13 164.784L1342.73 164.784L1344.65 169.765L1304.26 169.765ZM1378.14 194.892L1378.14 189.985L1400.7 189.985Q1407.85 189.985 1411.92 185.768Q1415.99 181.527 1415.99 174.795Q1415.99 168.088 1411.99 163.871Q1408.02 159.63 1400.7 159.63L1378.14 159.63L1378.14 155.858L1399.81 155.858Q1406.22 155.858 1411.08 157.929Q1415.94 159.975 1418.7 164.118Q1421.49 168.236 1421.49 174.351L1421.49 175.362Q1421.49 180.96 1419.1 185.398Q1416.73 189.812 1411.9 192.352Q1407.09 194.892 1399.81 194.892L1378.14 194.892ZM1374.44 194.892L1374.44 120.621L1379.89 120.621L1379.89 194.892L1374.44 194.892ZM1378.14 158.619L1378.14 154.871L1397.96 154.871Q1405.63 154.871 1409.28 150.753Q1412.96 146.611 1412.96 140.224Q1412.96 133.788 1409.28 129.671Q1405.63 125.528 1397.96 125.528L1378.14 125.528L1378.14 120.621L1396.98 120.621Q1407.83 120.621 1413.15 125.824Q1418.48 131.027 1418.48 139.608L1418.48 140.619Q1418.48 146.586 1415.84 150.605Q1413.23 154.625 1408.42 156.622Q1403.61 158.619 1396.98 158.619L1378.14 158.619Z"/></svg>